<?xml version="1.0" encoding="UTF-8" standalone="no"?>
<svg xmlns="http://www.w3.org/2000/svg" width="1000" height="1000" viewBox="0 0 1000 1000">
  <title>SEE CLEARLY — organic</title>
  <g id="SEE_CLEARLY_MARK">
    <path d="M135 505 C245 315 375 245 500 248 C630 250 755 326 865 500 C752 680 630 755 498 754 C365 752 242 680 135 505 Z" fill="none" stroke="#D1B464" stroke-width="34" stroke-linejoin="round" stroke-linecap="round"/>
    <circle cx="500" cy="500" r="132" fill="none" stroke="#D1B464" stroke-width="30"/>
    <circle cx="500" cy="500" r="58" fill="#D1B464"/>
    <path d="M170 505 C278 350 395 292 505 295 C620 297 730 365 830 500" fill="none" stroke="#D1B464" stroke-width="13" stroke-linecap="round"/>
    <line x1="290" y1="255" x2="260" y2="195" stroke="#D1B464" stroke-width="20" stroke-linecap="round"/>
    <line x1="390" y1="220" x2="375" y2="155" stroke="#D1B464" stroke-width="20" stroke-linecap="round"/>
    <line x1="500" y1="210" x2="500" y2="140" stroke="#D1B464" stroke-width="20" stroke-linecap="round"/>
    <line x1="610" y1="225" x2="630" y2="160" stroke="#D1B464" stroke-width="20" stroke-linecap="round"/>
    <line x1="710" y1="270" x2="752" y2="215" stroke="#D1B464" stroke-width="20" stroke-linecap="round"/>
    <line x1="300" y1="750" x2="275" y2="808" stroke="#D1B464" stroke-width="20" stroke-linecap="round"/>
    <line x1="500" y1="790" x2="500" y2="860" stroke="#D1B464" stroke-width="20" stroke-linecap="round"/>
    <line x1="700" y1="745" x2="730" y2="805" stroke="#D1B464" stroke-width="20" stroke-linecap="round"/>
  </g>
</svg>
