<?xml version="1.0" encoding="UTF-8" standalone="no"?>
<!DOCTYPE svg PUBLIC "-//W3C//DTD SVG 1.1//EN" "http://www.w3.org/Graphics/SVG/1.1/DTD/svg11.dtd">
<svg width="100%" height="100%" viewBox="0 0 129 129" version="1.1" xmlns="http://www.w3.org/2000/svg" xmlns:xlink="http://www.w3.org/1999/xlink" xml:space="preserve" xmlns:serif="http://www.serif.com/" style="fill-rule:evenodd;clip-rule:evenodd;stroke-linejoin:round;stroke-miterlimit:2;">
    <g transform="matrix(1,0,0,1,-41.3846,-249.496)">
        <g transform="matrix(1,0,0,1,28.964,35.069)">
            <g transform="matrix(5.375,0,0,5.375,76.9206,278.927)">
                <g transform="matrix(1,0,0,1,-12,-12)">
                    <path d="M0.693,10.024C1.074,10.024 1.386,8.768 1.386,7.217C1.386,5.667 1.074,4.41 0.693,4.41C0.312,4.41 0,5.666 0,7.217C0,8.768 0.312,10.025 0.693,10.025L0.693,10.024ZM21.038,1.56C20.674,1.56 20.354,2.365 20.128,3.656C19.765,1.446 19.184,0 18.526,0C17.746,0 17.062,2.036 16.742,5C16.43,2.842 15.954,1.464 15.417,1.464C14.672,1.464 14.031,4.168 13.797,7.936C13.355,6.004 12.714,4.791 12.004,4.791C11.294,4.791 10.654,6.004 10.211,7.936C9.969,4.176 9.337,1.473 8.583,1.473C8.046,1.473 7.57,2.851 7.258,5.008C6.938,2.036 6.262,0 5.474,0C4.816,0 4.227,1.447 3.872,3.665C3.655,2.374 3.326,1.56 2.962,1.56C2.287,1.56 1.741,4.367 1.741,7.832C1.741,11.298 2.287,14.105 2.962,14.105C3.239,14.105 3.499,13.629 3.698,12.832C4.018,15.76 4.694,17.77 5.474,17.77C6.08,17.77 6.617,16.566 6.981,14.66C7.232,18.282 7.856,20.855 8.583,20.855C9.043,20.855 9.458,19.832 9.77,18.178C10.142,21.6 11,24 12.004,24C13.009,24 13.867,21.6 14.239,18.178C14.551,19.832 14.966,20.855 15.425,20.855C16.153,20.855 16.777,18.282 17.028,14.66C17.392,16.566 17.928,17.77 18.535,17.77C19.315,17.77 19.99,15.76 20.31,12.832C20.518,13.629 20.77,14.105 21.047,14.105C21.722,14.105 22.267,11.298 22.267,7.832C22.259,4.375 21.714,1.56 21.037,1.56L21.038,1.56ZM23.307,10.024C23.688,10.024 24,8.768 24,7.217C24,5.667 23.688,4.41 23.307,4.41C22.926,4.41 22.614,5.666 22.614,7.217C22.614,8.768 22.926,10.025 23.307,10.025L23.307,10.024Z" style="fill-rule:nonzero;"/>
                </g>
            </g>
        </g>
    </g>
</svg>
