<?xml version="1.0" encoding="UTF-8" standalone="no"?>
<!DOCTYPE svg PUBLIC "-//W3C//DTD SVG 1.1//EN" "http://www.w3.org/Graphics/SVG/1.1/DTD/svg11.dtd">
<svg width="100%" height="100%" viewBox="0 0 132 94" version="1.1" xmlns="http://www.w3.org/2000/svg" xmlns:xlink="http://www.w3.org/1999/xlink" xml:space="preserve" xmlns:serif="http://www.serif.com/" style="fill-rule:evenodd;clip-rule:evenodd;stroke-linejoin:round;stroke-miterlimit:2;">
    <g transform="matrix(1,0,0,1,-954.568,-58.1382)">
        <g transform="matrix(1,0,0,1,28.964,35.069)">
            <g transform="matrix(1,0,0,1,55,-587.031)">
                <path d="M1002.5,610.83C1000.73,610.75 1001.6,610.392 1000.64,610.83L910.854,610.83C900.724,610.83 878.566,608.831 870.604,611.449C870.687,644.147 872.426,672.621 872.462,703.714L1001.88,703.714C1001.8,700.661 1001.22,695.138 1002.5,693.187L1002.5,610.83ZM886.7,618.261L983.919,618.261C977.856,630.9 960.6,645.294 949.861,656.034C946.017,659.879 941.627,667.133 936.238,669.038L886.7,619.5L886.7,618.261ZM881.746,688.233C879.714,687.788 880.303,687.6 878.65,686.995L878.65,626.93C882.839,628.428 885.625,633.286 888.558,636.218C895.738,643.398 902.982,650.12 909.612,657.891C907.883,666.259 887.095,680.223 881.746,688.233ZM984.536,697.522L911.467,697.522C902.488,697.521 889.324,699.1 886.698,694.426C896.398,684.519 906.101,674.61 915.802,664.703L934.379,683.28C941.492,680.712 947.797,669.581 954.194,665.322L954.813,664.703C964.926,675.022 975.042,685.345 985.155,695.664C984.948,696.283 984.742,696.903 984.536,697.522ZM993.205,688.233L992.586,688.852L972.771,669.037C969.665,664.925 965.866,659.533 961.625,656.652C962.845,653.269 966.117,651.541 968.437,649.221C976.073,641.378 983.712,633.533 991.348,625.69L992.586,625.69C992.004,627.835 993.097,628.847 993.205,631.882C993.411,642.408 993.618,652.937 993.824,663.463C993.823,667.69 992.62,675.991 994.443,678.944C994.573,682.312 994.973,686.669 993.205,688.233Z"/>
            </g>
        </g>
    </g>
</svg>
