<?xml version="1.0" encoding="UTF-8" standalone="no"?>
<!DOCTYPE svg PUBLIC "-//W3C//DTD SVG 1.1//EN" "http://www.w3.org/Graphics/SVG/1.1/DTD/svg11.dtd">
<svg width="100%" height="100%" viewBox="0 0 61 123" version="1.1" xmlns="http://www.w3.org/2000/svg" xmlns:xlink="http://www.w3.org/1999/xlink" xml:space="preserve" xmlns:serif="http://www.serif.com/" style="fill-rule:evenodd;clip-rule:evenodd;stroke-linejoin:round;stroke-miterlimit:2;">
    <g transform="matrix(1,0,0,1,-695.766,-41.8463)">
        <g transform="matrix(0.883321,0,0,0.922325,561.708,-53.4631)">
            <path d="M164.3,236.481L164.3,160.694L151.766,160.694L151.766,145.338L164.3,145.338L164.3,138.78C164.3,115.151 175.506,103.336 197.918,103.336C205.167,103.336 212.638,104.388 220.33,106.49L220.33,123.092C213.357,120.159 207.103,118.693 201.57,118.693C193.103,118.693 188.87,125.085 188.87,137.868L188.87,145.339L211.946,145.339L211.946,160.695L188.87,160.695L188.87,236.481L164.3,236.481Z" style="fill:rgb(210,180,101);fill-rule:nonzero;"/>
        </g>
    </g>
</svg>
