<?xml version="1.0" encoding="UTF-8" standalone="no"?>
<!DOCTYPE svg PUBLIC "-//W3C//DTD SVG 1.1//EN" "http://www.w3.org/Graphics/SVG/1.1/DTD/svg11.dtd">
<svg width="100%" height="100%" viewBox="0 0 125 125" version="1.1" xmlns="http://www.w3.org/2000/svg" xmlns:xlink="http://www.w3.org/1999/xlink" xml:space="preserve" xmlns:serif="http://www.serif.com/" style="fill-rule:evenodd;clip-rule:evenodd;stroke-linejoin:round;stroke-miterlimit:2;">
    <g transform="matrix(1,0,0,1,-196.009,-45.8946)">
        <g transform="matrix(1,0,0,1,-458.688,-56.2054)">
            <path d="M680.77,102.1L752.662,102.1C759.84,102.1 766.343,105.03 771.06,109.775C775.806,114.492 778.736,120.995 778.736,128.173L778.736,200.065C778.736,207.243 775.806,213.747 771.06,218.463C766.343,223.209 759.84,226.139 752.662,226.139L680.77,226.139C673.593,226.139 667.089,223.209 662.372,218.463C657.626,213.747 654.696,207.243 654.696,200.065L654.696,128.173C654.696,120.996 657.626,114.492 662.372,109.775C667.089,105.03 673.592,102.1 680.77,102.1ZM754.625,122.431C756.031,122.431 757.203,123.603 757.203,125.009C757.203,126.445 756.031,127.587 754.625,127.587C753.189,127.587 752.047,126.445 752.047,125.009C752.047,123.603 753.19,122.431 754.625,122.431ZM716.716,129.491C735.846,129.491 751.344,144.988 751.344,164.119C751.344,183.25 735.847,198.747 716.716,198.747C697.585,198.747 682.088,183.25 682.088,164.119C682.088,144.988 697.585,129.491 716.716,129.491ZM746.393,164.119C746.393,147.743 733.093,134.442 716.716,134.442C700.339,134.442 687.039,147.742 687.039,164.119C687.039,180.496 700.339,193.796 716.716,193.796C733.093,193.796 746.393,180.496 746.393,164.119ZM752.662,107.08L680.77,107.08C674.97,107.08 669.696,109.453 665.858,113.262C662.05,117.1 659.677,122.373 659.677,128.174L659.677,200.066C659.677,205.866 662.05,211.14 665.858,214.978C669.696,218.786 674.969,221.159 680.77,221.159L752.662,221.159C758.463,221.159 763.736,218.786 767.574,214.978C771.383,211.14 773.756,205.867 773.756,200.066L773.756,128.174C773.756,122.373 771.383,117.1 767.574,113.262C763.737,109.453 758.463,107.08 752.662,107.08Z" style="fill:rgb(210,180,101);fill-rule:nonzero;"/>
        </g>
    </g>
</svg>
