<?xml version="1.0" encoding="UTF-8" standalone="no"?>
<!DOCTYPE svg PUBLIC "-//W3C//DTD SVG 1.1//EN" "http://www.w3.org/Graphics/SVG/1.1/DTD/svg11.dtd">
<svg width="100%" height="100%" viewBox="0 0 119 120" version="1.1" xmlns="http://www.w3.org/2000/svg" xmlns:xlink="http://www.w3.org/1999/xlink" xml:space="preserve" xmlns:serif="http://www.serif.com/" style="fill-rule:evenodd;clip-rule:evenodd;stroke-linejoin:round;stroke-miterlimit:2;">
    <g transform="matrix(1,0,0,1,-44.8174,-50.8436)">
        <g transform="matrix(1,0,0,1,28.964,35.069)">
            <g transform="matrix(1,0,0,1,-83,-313.302)">
                <path d="M217.18,427.39C214.545,415.288 212.249,404.652 208.058,394.957C194.796,364.275 171.243,343.929 138.124,333.131C129.501,330.32 120.156,330.805 110.252,329.077C109.175,329.804 106.538,329.655 104.678,329.584C103.158,330.766 101.637,331.949 100.117,333.131C99.324,336.426 98.94,338.061 99.103,341.746C101.187,343.907 102.488,346.791 105.691,347.827L115.826,347.827C121.378,349.043 127.231,349.158 132.549,350.868C146.658,355.404 160.598,362.254 170.05,371.645C181.088,382.613 189.605,395.947 195.388,412.186C197.478,418.053 197.555,424.643 198.935,430.936C200.138,436.423 197.982,440.863 200.962,444.112C203.526,451.102 215.105,447.847 216.672,442.085C217.889,440.328 217.943,430.891 217.18,427.39ZM106.7,362.523C106.105,362.932 105.852,362.931 104.673,363.03C103.453,364.242 101.541,365.669 100.112,366.577C99.276,369.844 97.756,373.326 100.112,376.206C102.474,382.733 107.865,379.546 115.315,381.274C127.133,384.015 136.458,387.808 144.707,393.943C153.034,400.136 159.949,411.433 163.457,422.322C164.477,425.489 164.808,428.884 165.484,431.951C166.231,435.341 164.857,439.326 165.991,442.086C167.348,445.388 170.228,445.946 172.579,448.167C178.36,448.162 179.503,446.274 182.714,444.113C186.323,430.288 180.591,415.737 176.126,405.599C165.806,382.16 140.613,362.278 106.7,362.523ZM116.836,404.078C115.037,405.241 112.791,405.177 110.755,406.105C105.673,408.421 101.206,414.518 99.606,420.295C95.474,435.214 110.502,450.165 124.944,446.647C136.215,443.902 147.46,430.067 140.147,415.734C136.206,408.009 128.979,403.814 116.836,404.078Z" style="fill:rgb(210,180,101);"/>
            </g>
        </g>
    </g>
</svg>
