<?xml version="1.0" encoding="UTF-8" standalone="no"?>
<!DOCTYPE svg PUBLIC "-//W3C//DTD SVG 1.1//EN" "http://www.w3.org/Graphics/SVG/1.1/DTD/svg11.dtd">
<svg width="100%" height="100%" viewBox="0 0 126 125" version="1.1" xmlns="http://www.w3.org/2000/svg" xmlns:xlink="http://www.w3.org/1999/xlink" xml:space="preserve" xmlns:serif="http://www.serif.com/" style="fill-rule:evenodd;clip-rule:evenodd;stroke-linejoin:round;stroke-miterlimit:2;">
    <g transform="matrix(1,0,0,1,-359.33,-45.2411)">
        <g transform="matrix(1,0,0,1,28.964,35.069)">
            <g transform="matrix(1,0,0,1,-561.526,-62.3463)">
                <path d="M1016.6,113.92C1016.6,112.82 1016.66,111.022 1016.73,109.924C1016.73,109.924 1017.76,94.592 1015.85,88.4C1014.37,83.617 1011.25,79.28 1007.59,76.64C1000.86,71.781 979.066,72.565 979.066,72.565C977.967,72.605 976.167,72.637 975.067,72.637L914.264,72.637C913.164,72.637 911.383,72.821 910.306,73.045L908.217,73.48C907.14,73.704 905.491,74.357 904.553,74.931C904.553,74.931 897.268,79.384 894.75,83.646C891.349,89.403 891.93,106.417 891.93,106.417C891.967,107.516 891.998,109.316 891.998,110.416L891.998,159.71C891.998,160.81 891.973,162.61 891.943,163.709C891.943,163.709 891.534,178.587 893.749,183.728C900.1,198.463 932.034,196.84 932.034,196.84C933.133,196.784 934.931,196.738 936.031,196.738L972.064,196.738C973.164,196.738 974.96,196.821 976.056,196.922C976.056,196.922 999.71,199.102 1009.34,191.484C1017,185.43 1016.63,161.958 1016.63,161.958C1016.61,160.858 1016.6,159.058 1016.6,157.958L1016.6,113.92L1016.6,113.92ZM977.318,141.194C967.561,146.531 957.801,151.87 948.044,157.207C944.864,158.94 938.658,161.26 938.658,161.26C937.628,161.645 936.697,161.065 936.59,159.97C936.59,159.97 935.784,151.715 935.784,146.948C935.784,135.857 936.249,109.415 936.249,109.415C936.268,108.315 936.434,107.303 936.618,107.165C936.802,107.027 938.105,107.036 939.107,107.489C939.107,107.489 946.748,110.946 950.546,113.17C962.054,119.424 983.317,130.98 983.317,130.98C984.283,131.505 984.634,132.72 984.095,133.679C984.095,133.68 980.959,139.268 977.318,141.194Z" style="fill:rgb(210,180,101);fill-rule:nonzero;"/>
            </g>
        </g>
    </g>
</svg>
