<?xml version="1.0" encoding="UTF-8" standalone="no"?>
<!DOCTYPE svg PUBLIC "-//W3C//DTD SVG 1.1//EN" "http://www.w3.org/Graphics/SVG/1.1/DTD/svg11.dtd">
<svg width="100%" height="100%" viewBox="0 0 790 750" version="1.1" xmlns="http://www.w3.org/2000/svg" xmlns:xlink="http://www.w3.org/1999/xlink" xml:space="preserve" xmlns:serif="http://www.serif.com/" style="fill-rule:evenodd;clip-rule:evenodd;stroke-linejoin:round;stroke-miterlimit:2;">
    <g transform="matrix(1,0,0,1,-568,-165)">
        <g transform="matrix(1.06471,0,0,1.06471,234.747,-247.041)">
            <path d="M653,472L653,642C653,688.913 614.913,727 568,727L398,727C351.087,727 313,688.913 313,642L313,472C313,425.087 351.087,387 398,387L568,387C614.913,387 653,425.087 653,472Z" style="fill:rgb(210,180,101);fill-opacity:0.33;"/>
        </g>
        <g transform="matrix(1.06471,0,0,1.06471,234.747,140.959)">
            <path d="M653,472L653,642C653,688.913 614.913,727 568,727L398,727C351.087,727 313,688.913 313,642L313,472C313,425.087 351.087,387 398,387L568,387C614.913,387 653,425.087 653,472Z" style="fill:rgb(210,180,101);fill-opacity:0.33;"/>
        </g>
        <g transform="matrix(1.06471,0,0,1.06471,662.747,-247.041)">
            <path d="M653,472L653,642C653,688.913 614.913,727 568,727L398,727C351.087,727 313,688.913 313,642L313,472C313,425.087 351.087,387 398,387L568,387C614.913,387 653,425.087 653,472Z" style="fill:rgb(210,180,101);fill-opacity:0.33;"/>
        </g>
        <g transform="matrix(1.06471,0,0,1.06471,662.747,140.959)">
            <path d="M653,472L653,642C653,688.913 614.913,727 568,727L398,727C351.087,727 313,688.913 313,642L313,472C313,425.087 351.087,387 398,387L568,387C614.913,387 653,425.087 653,472Z" style="fill:rgb(210,180,101);fill-opacity:0.33;"/>
        </g>
    </g>
</svg>
