<?xml version="1.0" encoding="UTF-8" standalone="no"?>
<!DOCTYPE svg PUBLIC "-//W3C//DTD SVG 1.1//EN" "http://www.w3.org/Graphics/SVG/1.1/DTD/svg11.dtd">
<svg width="100%" height="100%" viewBox="0 0 652 652" version="1.1" xmlns="http://www.w3.org/2000/svg" xmlns:xlink="http://www.w3.org/1999/xlink" xml:space="preserve" xmlns:serif="http://www.serif.com/" style="fill-rule:evenodd;clip-rule:evenodd;stroke-linejoin:round;stroke-miterlimit:2;">
    <g transform="matrix(1,0,0,1,-1446,-1446)">
        <g transform="matrix(1.3026,0,0,1.3026,1771.65,1771.65)">
            <g transform="matrix(1,0,0,1,-250,-250)">
                <clipPath id="_clip1">
                    <rect x="0" y="0" width="500" height="500"/>
                </clipPath>
                <g clip-path="url(#_clip1)">
                    <g transform="matrix(1.04981,0,0,1.04981,-11.6589,-12.4823)">
                        <path d="M335.7,145.95C314.696,211.588 250.13,249.59 250.13,249.59C250.13,249.59 219.618,181.168 240.622,115.53C261.626,49.892 326.192,11.89 326.192,11.89C326.192,11.89 356.704,80.312 335.7,145.95Z" style="fill:rgb(210,180,101);fill-rule:nonzero;"/>
                    </g>
                    <g transform="matrix(1.04691,0,0,1.04691,-8.47154,-11.6957)">
                        <path d="M164.3,354.05C185.304,288.412 249.87,250.41 249.87,250.41C249.87,250.41 280.382,318.832 259.378,384.47C238.374,450.108 173.808,488.11 173.808,488.11C173.808,488.11 143.296,419.688 164.3,354.05Z" style="fill:rgb(210,180,101);fill-rule:nonzero;"/>
                    </g>
                    <g transform="matrix(1.0216,0,0,1.0216,-3.5408,-7.07776)">
                        <path d="M354.05,335.7C288.412,314.696 250.41,250.13 250.41,250.13C250.41,250.13 318.832,219.618 384.47,240.622C450.108,261.626 488.11,326.192 488.11,326.192C488.11,326.192 419.688,356.704 354.05,335.7Z" style="fill:rgb(210,180,101);fill-rule:nonzero;"/>
                    </g>
                    <g transform="matrix(1.05822,0,0,1.05822,-12.5823,-13.491)">
                        <path d="M145.95,164.3C211.588,185.304 249.59,249.87 249.59,249.87C249.59,249.87 181.168,280.382 115.53,259.378C49.892,238.374 11.89,173.808 11.89,173.808C11.89,173.808 80.312,143.296 145.95,164.3Z" style="fill:rgb(210,180,101);fill-rule:nonzero;"/>
                    </g>
                    <g transform="matrix(1.12179,0,0,1.12179,-28.4481,-30.4481)">
                        <path d="M262.97,384.17C231.409,322.905 250.196,250.38 250.196,250.38C250.196,250.38 320.153,277.187 351.716,338.452C383.279,399.717 364.49,472.242 364.49,472.242C364.49,472.242 294.533,445.435 262.97,384.17Z" style="fill:rgb(210,180,101);fill-rule:nonzero;"/>
                    </g>
                    <g transform="matrix(1.12179,0,0,1.12179,-28.4481,-30.4481)">
                        <path d="M237.03,115.83C268.591,177.095 249.804,249.62 249.804,249.62C249.804,249.62 179.847,222.813 148.284,161.548C116.721,100.283 135.51,27.758 135.51,27.758C135.51,27.758 205.467,54.565 237.03,115.83Z" style="fill:rgb(210,180,101);fill-rule:nonzero;"/>
                    </g>
                    <g transform="matrix(1.12179,0,0,1.12179,-28.4481,-30.4481)">
                        <path d="M115.83,262.97C177.095,231.409 249.62,250.196 249.62,250.196C249.62,250.196 222.813,320.153 161.548,351.716C100.283,383.279 27.758,364.49 27.758,364.49C27.758,364.49 54.565,294.533 115.83,262.97Z" style="fill:rgb(210,180,101);fill-rule:nonzero;"/>
                    </g>
                    <g transform="matrix(1.11594,0,0,1.11594,-26.9931,-28.9533)">
                        <path d="M384.17,237.03C322.905,268.591 250.38,249.804 250.38,249.804C250.38,249.804 277.187,179.847 338.452,148.284C399.717,116.721 472.242,135.51 472.242,135.51C472.242,135.51 445.435,205.467 384.17,237.03Z" style="fill:rgb(210,180,101);fill-rule:nonzero;"/>
                    </g>
                    <g transform="matrix(0.95793,0,0,0.95793,9.81251,10.5002)">
                        <path d="M335.7,145.95C314.696,211.588 250.13,249.59 250.13,249.59C250.13,249.59 219.618,181.168 240.622,115.53C261.626,49.892 326.192,11.89 326.192,11.89C326.192,11.89 356.704,80.312 335.7,145.95Z" style="fill:rgb(48,54,34);fill-rule:nonzero;"/>
                    </g>
                    <g transform="matrix(0.945309,0,0,0.945309,14.5891,13.6951)">
                        <path d="M164.3,354.05C185.304,288.412 249.87,250.41 249.87,250.41C249.87,250.41 280.382,318.832 259.378,384.47C238.374,450.108 173.808,488.11 173.808,488.11C173.808,488.11 143.296,419.688 164.3,354.05Z" style="fill:rgb(48,54,34);fill-rule:nonzero;"/>
                    </g>
                    <g transform="matrix(0.910681,0,0,0.910681,22.3664,20.6508)">
                        <path d="M354.05,335.7C288.412,314.696 250.41,250.13 250.41,250.13C250.41,250.13 318.832,219.618 384.47,240.622C450.108,261.626 488.11,326.192 488.11,326.192C488.11,326.192 419.688,356.704 354.05,335.7Z" style="fill:rgb(48,54,34);fill-rule:nonzero;"/>
                    </g>
                    <g transform="matrix(0.943334,0,0,0.943334,14.2538,15.2317)">
                        <path d="M145.95,164.3C211.588,185.304 249.59,249.87 249.59,249.87C249.59,249.87 181.168,280.382 115.53,259.378C49.892,238.374 11.89,173.808 11.89,173.808C11.89,173.808 80.312,143.296 145.95,164.3Z" style="fill:rgb(48,54,34);fill-rule:nonzero;"/>
                    </g>
                    <path d="M262.97,384.17C231.409,322.905 250.196,250.38 250.196,250.38C250.196,250.38 320.153,277.187 351.716,338.452C383.279,399.717 364.49,472.242 364.49,472.242C364.49,472.242 294.533,445.435 262.97,384.17Z" style="fill:rgb(48,54,34);fill-rule:nonzero;"/>
                    <path d="M237.03,115.83C268.591,177.095 249.804,249.62 249.804,249.62C249.804,249.62 179.847,222.813 148.284,161.548C116.721,100.283 135.51,27.758 135.51,27.758C135.51,27.758 205.467,54.565 237.03,115.83Z" style="fill:rgb(48,54,34);fill-rule:nonzero;"/>
                    <path d="M115.83,262.97C177.095,231.409 249.62,250.196 249.62,250.196C249.62,250.196 222.813,320.153 161.548,351.716C100.283,383.279 27.758,364.49 27.758,364.49C27.758,364.49 54.565,294.533 115.83,262.97Z" style="fill:rgb(48,54,34);fill-rule:nonzero;"/>
                    <g transform="matrix(0.994782,0,0,0.994782,1.30653,1.33588)">
                        <path d="M384.17,237.03C322.905,268.591 250.38,249.804 250.38,249.804C250.38,249.804 277.187,179.847 338.452,148.284C399.717,116.721 472.242,135.51 472.242,135.51C472.242,135.51 445.435,205.467 384.17,237.03Z" style="fill:rgb(48,54,34);fill-rule:nonzero;"/>
                    </g>
                    <path d="M299.91,124.78C299.91,193.697 249.996,249.56 249.996,249.56C249.996,249.56 200.082,193.692 200.082,124.78C200.082,55.868 249.996,0 249.996,0C249.996,0 299.91,55.868 299.91,124.78Z" style="fill:rgb(210,180,101);fill-rule:nonzero;"/>
                    <path d="M200.09,375.22C200.09,306.303 250.004,250.44 250.004,250.44C250.004,250.44 299.918,306.308 299.918,375.22C299.918,444.132 250.004,500 250.004,500C250.004,500 200.09,444.132 200.09,375.22Z" style="fill:rgb(210,180,101);fill-rule:nonzero;"/>
                    <path d="M375.22,299.91C306.303,299.91 250.44,249.996 250.44,249.996C250.44,249.996 306.308,200.082 375.22,200.082C444.132,200.082 500,249.996 500,249.996C500,249.996 444.132,299.91 375.22,299.91Z" style="fill:rgb(210,180,101);fill-rule:nonzero;"/>
                    <path d="M124.78,200.09C193.697,200.09 249.56,250.004 249.56,250.004C249.56,250.004 193.692,299.918 124.78,299.918C55.868,299.918 0,250.004 0,250.004C0,250.004 55.868,200.09 124.78,200.09Z" style="fill:rgb(210,180,101);fill-rule:nonzero;"/>
                    <path d="M303.25,373.84C254.519,325.109 250.308,250.31 250.308,250.31C250.308,250.31 325.107,254.52 373.838,303.252C422.569,351.984 426.78,426.782 426.78,426.782C426.78,426.782 351.981,422.572 303.25,373.84Z" style="fill:rgb(210,180,101);fill-rule:nonzero;"/>
                    <path d="M196.75,126.16C245.481,174.891 249.692,249.69 249.692,249.69C249.692,249.69 174.893,245.48 126.162,196.748C77.431,148.016 73.22,73.218 73.22,73.218C73.22,73.218 148.019,77.428 196.75,126.16Z" style="fill:rgb(210,180,101);fill-rule:nonzero;"/>
                    <path d="M126.16,303.25C174.891,254.519 249.69,250.308 249.69,250.308C249.69,250.308 245.48,325.107 196.748,373.838C148.016,422.569 73.218,426.78 73.218,426.78C73.218,426.78 77.428,351.981 126.16,303.25Z" style="fill:rgb(210,180,101);fill-rule:nonzero;"/>
                    <path d="M373.84,196.75C325.109,245.481 250.31,249.692 250.31,249.692C250.31,249.692 254.52,174.893 303.252,126.162C351.984,77.431 426.782,73.22 426.782,73.22C426.782,73.22 422.572,148.019 373.84,196.75Z" style="fill:rgb(210,180,101);fill-rule:nonzero;"/>
                    <circle cx="250" cy="250" r="94.836" style="fill:rgb(48,54,34);"/>
                </g>
            </g>
        </g>
    </g>
</svg>
